<svg width="1290" height="270" viewBox="0 0 1290 270" fill="none" xmlns="http://www.w3.org/2000/svg">
<path d="M451.177 81.6471V187.529H468.824V81.6471H451.177Z" fill="#FAFAFA"/>
<path d="M402.899 81.6471H385.671L343.529 187.529H362.414L371.531 163.403H416.998L426.115 187.529H445L402.899 81.6471ZM394.275 103.219L411.128 149.391H377.442L394.275 103.219Z" fill="#FAFAFA"/>
<path d="M245.588 141.474C245.588 118.485 229.658 99.8822 205.164 99.8822C180.671 99.8822 161.765 119.105 161.765 144.681C161.765 170.257 180.388 189.294 205.772 189.294C220.63 189.294 235.953 181.783 243.746 167.484C243.746 167.484 245.588 163.553 245.588 161.442C245.588 161.007 245.568 160.594 245.507 160.242H229.476C223.362 168.788 215.448 172.678 205.772 172.678C191.238 172.678 180.489 162.58 179.7 149.709H244.88C245.406 146.937 245.588 144.164 245.588 141.474ZM180.145 136.446C182.331 124.382 192.128 115.877 204.982 115.877C217.067 115.877 226.945 124.361 227.998 136.446H180.145Z" fill="#FAFAFA"/>
<path d="M303.734 99.9467C289.39 99.9467 280.079 105.302 273.824 113.428V81.6471H256.177V187.516H273.824V175.792C280.079 183.918 289.39 189.294 303.734 189.294C327.778 189.294 346.177 170.54 346.177 144.176C346.177 117.812 327.778 99.9467 303.734 99.9467ZM301.636 173.393C285.335 173.393 273.721 159.994 273.721 144.176C273.721 128.358 285.437 115.848 301.636 115.848C317.834 115.848 328.756 128.358 328.756 144.176C328.756 159.994 317.936 173.393 301.636 173.393Z" fill="#FAFAFA"/>
<path d="M143.037 99.2941L124.144 169.687L104.09 100.23H85.3006L65.2471 169.687L46.3538 99.2941H27.647L52.9831 187.529H77.159L94.7058 124.75L112.253 187.529H136.429L161.765 99.2941H143.037Z" fill="#FAFAFA"/>
<path d="M556.484 81.205L529.462 204.803H515.882L542.904 81.205H556.484ZM594.26 180.677V81.205H629.21C639.09 81.205 647.523 83.1581 654.508 87.0644C661.539 90.9247 666.939 96.5543 670.708 103.953C674.476 111.306 676.36 120.199 676.36 130.631V130.768C676.36 141.246 674.476 150.231 670.708 157.722C666.985 165.166 661.608 170.865 654.577 174.817C647.592 178.723 639.136 180.677 629.21 180.677H594.26ZM609.494 167.51H627.831C634.954 167.51 640.951 166.108 645.823 163.305C650.74 160.456 654.462 156.32 656.99 150.897C659.517 145.428 660.781 138.765 660.781 130.906V130.768C660.781 122.956 659.494 116.338 656.921 110.915C654.393 105.493 650.671 101.38 645.754 98.5763C640.882 95.773 634.908 94.3714 627.831 94.3714H609.494V167.51ZM720.271 182.124C713.194 182.124 707.105 180.608 702.004 177.574C696.903 174.495 692.973 170.153 690.216 164.546C687.505 158.939 686.149 152.322 686.149 144.693V144.624C686.149 137.087 687.528 130.493 690.285 124.84C693.042 119.142 696.903 114.73 701.866 111.605C706.875 108.434 712.757 106.848 719.513 106.848C726.268 106.848 732.082 108.365 736.953 111.398C741.87 114.385 745.639 118.613 748.258 124.082C750.924 129.551 752.256 135.915 752.256 143.177V148.209H693.456V137.731H745.087L737.849 147.519V141.798C737.849 136.651 737.068 132.4 735.505 129.045C733.943 125.644 731.783 123.117 729.026 121.462C726.314 119.762 723.166 118.912 719.582 118.912C715.997 118.912 712.78 119.785 709.931 121.531C707.128 123.278 704.899 125.851 703.244 129.252C701.636 132.653 700.832 136.835 700.832 141.798V147.519C700.832 152.253 701.636 156.297 703.244 159.652C704.853 163.006 707.128 165.58 710.069 167.372C713.056 169.119 716.572 169.992 720.616 169.992C723.557 169.992 726.153 169.555 728.405 168.682C730.657 167.763 732.541 166.545 734.058 165.029C735.574 163.512 736.631 161.835 737.229 159.996L737.436 159.445H751.429L751.291 160.134C750.694 163.029 749.568 165.787 747.914 168.406C746.259 171.026 744.099 173.37 741.434 175.438C738.768 177.506 735.666 179.137 732.128 180.332C728.589 181.527 724.637 182.124 720.271 182.124ZM780.864 180.677L754.738 108.227H770.386L788.722 166.269H788.998L807.335 108.227H822.638L796.65 180.677H780.864ZM875.51 182.331C866.181 182.331 858.047 180.24 851.107 176.058C844.214 171.876 838.883 165.948 835.115 158.273C831.346 150.552 829.462 141.43 829.462 130.906V130.837C829.462 120.313 831.346 111.214 835.115 103.54C838.883 95.8649 844.214 89.9596 851.107 85.8236C858.001 81.6416 866.135 79.5506 875.51 79.5506C882.817 79.5506 889.389 80.9523 895.225 83.7556C901.107 86.5129 905.933 90.3732 909.701 95.3364C913.516 100.254 915.951 105.998 917.008 112.57L917.146 113.259H901.981L901.567 111.812C900.464 107.905 898.718 104.574 896.328 101.816C893.938 99.0129 890.997 96.853 887.505 95.3364C884.012 93.8199 880.014 93.0616 875.51 93.0616C869.352 93.0616 863.975 94.6241 859.38 97.7491C854.83 100.828 851.291 105.194 848.764 110.847C846.282 116.453 845.041 123.117 845.041 130.837V130.906C845.041 138.581 846.282 145.268 848.764 150.966C851.291 156.665 854.853 161.076 859.448 164.201C864.044 167.28 869.398 168.82 875.51 168.82C879.968 168.82 883.92 168.085 887.367 166.614C890.859 165.097 893.823 162.892 896.259 159.996C898.741 157.101 900.602 153.54 901.843 149.312L901.981 148.622H917.146L917.008 149.381C915.997 155.952 913.585 161.72 909.77 166.683C906.002 171.646 901.176 175.506 895.294 178.264C889.412 180.975 882.817 182.331 875.51 182.331ZM960.299 182.124C953.221 182.124 947.132 180.608 942.031 177.574C936.93 174.495 933.001 170.153 930.244 164.546C927.532 158.939 926.176 152.322 926.176 144.693V144.624C926.176 137.087 927.555 130.493 930.312 124.84C933.07 119.142 936.93 114.73 941.893 111.605C946.903 108.434 952.785 106.848 959.54 106.848C966.296 106.848 972.109 108.365 976.981 111.398C981.898 114.385 985.666 118.613 988.286 124.082C990.951 129.551 992.284 135.915 992.284 143.177V148.209H933.483V137.731H985.115L977.877 147.519V141.798C977.877 136.651 977.096 132.4 975.533 129.045C973.971 125.644 971.811 123.117 969.053 121.462C966.342 119.762 963.194 118.912 959.609 118.912C956.025 118.912 952.808 119.785 949.959 121.531C947.155 123.278 944.926 125.851 943.272 129.252C941.664 132.653 940.859 136.835 940.859 141.798V147.519C940.859 152.253 941.664 156.297 943.272 159.652C944.88 163.006 947.155 165.58 950.096 167.372C953.084 169.119 956.599 169.992 960.643 169.992C963.585 169.992 966.181 169.555 968.433 168.682C970.685 167.763 972.569 166.545 974.085 165.029C975.602 163.512 976.659 161.835 977.256 159.996L977.463 159.445H991.457L991.319 160.134C990.721 163.029 989.596 165.787 987.941 168.406C986.287 171.026 984.127 173.37 981.461 175.438C978.796 177.506 975.694 179.137 972.155 180.332C968.617 181.527 964.664 182.124 960.299 182.124ZM1003.73 180.677V108.227H1018.41V119.119H1018.75C1020.68 115.442 1023.49 112.478 1027.16 110.226C1030.89 107.974 1035.48 106.848 1040.95 106.848C1048.9 106.848 1055.06 109.261 1059.43 114.086C1063.84 118.866 1066.04 125.415 1066.04 133.733V180.677H1051.29V136.559C1051.29 131.09 1050 126.885 1047.43 123.944C1044.86 120.957 1040.97 119.463 1035.78 119.463C1032.29 119.463 1029.23 120.268 1026.61 121.876C1024.04 123.438 1022.02 125.644 1020.55 128.494C1019.12 131.297 1018.41 134.606 1018.41 138.42V180.677H1003.73ZM1105.82 182.124C1098.74 182.124 1093.46 180.516 1089.96 177.299C1086.47 174.036 1084.72 168.797 1084.72 161.582V119.946H1074.32V108.227H1084.72V89.3392H1099.75V108.227H1113.33V119.946H1099.75V160.824C1099.75 164.5 1100.56 167.028 1102.16 168.406C1103.77 169.739 1106.16 170.405 1109.33 170.405C1110.11 170.405 1110.85 170.382 1111.54 170.336C1112.23 170.245 1112.83 170.176 1113.33 170.13V181.504C1112.5 181.642 1111.42 181.779 1110.09 181.917C1108.76 182.055 1107.33 182.124 1105.82 182.124ZM1154.69 182.124C1147.61 182.124 1141.53 180.608 1136.42 177.574C1131.32 174.495 1127.39 170.153 1124.64 164.546C1121.93 158.939 1120.57 152.322 1120.57 144.693V144.624C1120.57 137.087 1121.95 130.493 1124.71 124.84C1127.46 119.142 1131.32 114.73 1136.29 111.605C1141.3 108.434 1147.18 106.848 1153.93 106.848C1160.69 106.848 1166.5 108.365 1171.37 111.398C1176.29 114.385 1180.06 118.613 1182.68 124.082C1185.34 129.551 1186.68 135.915 1186.68 143.177V148.209H1127.88V137.731H1179.51L1172.27 147.519V141.798C1172.27 136.651 1171.49 132.4 1169.93 129.045C1168.36 125.644 1166.2 123.117 1163.45 121.462C1160.74 119.762 1157.59 118.912 1154 118.912C1150.42 118.912 1147.2 119.785 1144.35 121.531C1141.55 123.278 1139.32 125.851 1137.67 129.252C1136.06 132.653 1135.25 136.835 1135.25 141.798V147.519C1135.25 152.253 1136.06 156.297 1137.67 159.652C1139.27 163.006 1141.55 165.58 1144.49 167.372C1147.48 169.119 1150.99 169.992 1155.04 169.992C1157.98 169.992 1160.57 169.555 1162.83 168.682C1165.08 167.763 1166.96 166.545 1168.48 165.029C1170 163.512 1171.05 161.835 1171.65 159.996L1171.86 159.445H1185.85L1185.71 160.134C1185.11 163.029 1183.99 165.787 1182.33 168.406C1180.68 171.026 1178.52 173.37 1175.85 175.438C1173.19 177.506 1170.09 179.137 1166.55 180.332C1163.01 181.527 1159.06 182.124 1154.69 182.124ZM1198.12 180.677V108.227H1212.8V120.635H1213.15C1214.3 116.361 1216.34 113.006 1219.28 110.571C1222.22 108.089 1225.76 106.848 1229.9 106.848C1230.96 106.848 1231.92 106.917 1232.79 107.055C1233.71 107.147 1234.45 107.262 1235 107.4V121.118C1234.45 120.842 1233.55 120.635 1232.31 120.497C1231.12 120.313 1229.78 120.222 1228.31 120.222C1225.14 120.222 1222.39 120.911 1220.04 122.29C1217.74 123.622 1215.95 125.575 1214.66 128.149C1213.42 130.677 1212.8 133.756 1212.8 137.386V180.677H1198.12ZM1245.55 181.711C1243.02 181.711 1240.88 180.86 1239.14 179.16C1237.44 177.414 1236.59 175.277 1236.59 172.749C1236.59 170.222 1237.44 168.108 1239.14 166.407C1240.88 164.661 1243.02 163.788 1245.55 163.788C1248.07 163.788 1250.19 164.661 1251.89 166.407C1253.64 168.108 1254.51 170.222 1254.51 172.749C1254.51 175.277 1253.64 177.414 1251.89 179.16C1250.19 180.86 1248.07 181.711 1245.55 181.711Z" fill="#A3A3A3"/>
</svg>
