<svg width="1290" height="270" viewBox="0 0 1290 270" fill="none" xmlns="http://www.w3.org/2000/svg">
<g clip-path="url(#clip0_15679_2927)">
<path d="M451.177 82.4563V188.339H468.824V82.4563H451.177Z" fill="#181818"/>
<path d="M402.899 82.4563H385.671L343.529 188.339H362.414L371.531 164.212H416.998L426.115 188.339H445L402.899 82.4563ZM394.275 104.028L411.128 150.2H377.442L394.275 104.028Z" fill="#181818"/>
<path d="M245.588 142.284C245.588 119.295 229.658 100.692 205.164 100.692C180.671 100.692 161.765 119.915 161.765 145.491C161.765 171.067 180.388 190.104 205.772 190.104C220.63 190.104 235.953 182.593 243.746 168.294C243.746 168.294 245.588 164.363 245.588 162.252C245.588 161.817 245.568 161.404 245.507 161.052H229.476C223.362 169.598 215.448 173.488 205.772 173.488C191.238 173.488 180.489 163.39 179.7 150.519H244.88C245.406 147.747 245.588 144.974 245.588 142.284ZM180.145 137.256C182.331 125.192 192.128 116.687 204.982 116.687C217.067 116.687 226.945 125.171 227.998 137.256H180.145Z" fill="#181818"/>
<path d="M303.734 100.756C289.39 100.756 280.079 106.111 273.824 114.238V82.4563H256.177V188.325H273.824V176.601C280.079 184.727 289.39 190.103 303.734 190.103C327.778 190.103 346.177 171.349 346.177 144.985C346.177 118.621 327.778 100.756 303.734 100.756ZM301.636 174.202C285.335 174.202 273.721 160.803 273.721 144.985C273.721 129.167 285.437 116.657 301.636 116.657C317.834 116.657 328.756 129.167 328.756 144.985C328.756 160.803 317.936 174.202 301.636 174.202Z" fill="#181818"/>
<path d="M143.037 100.104L124.144 170.496L104.09 101.039H85.3006L65.2471 170.496L46.3538 100.104H27.647L52.9831 188.339H77.159L94.7058 125.56L112.253 188.339H136.429L161.765 100.104H143.037Z" fill="#181818"/>
<path d="M556.484 82.0141L529.462 205.612H515.882L542.904 82.0141H556.484ZM594.26 181.486V82.0141H629.21C639.09 82.0141 647.523 83.9672 654.508 87.8735C661.539 91.7338 666.939 97.3634 670.708 104.762C674.476 112.115 676.36 121.008 676.36 131.44V131.578C676.36 142.055 674.476 151.04 670.708 158.531C666.985 165.975 661.608 171.674 654.577 175.626C647.592 179.532 639.136 181.486 629.21 181.486H594.26ZM609.494 168.319H627.831C634.954 168.319 640.951 166.918 645.823 164.114C650.74 161.265 654.462 157.129 656.99 151.706C659.517 146.237 660.781 139.574 660.781 131.715V131.578C660.781 123.765 659.494 117.147 656.921 111.725C654.393 106.302 650.671 102.189 645.754 99.3854C640.882 96.5821 634.908 95.1805 627.831 95.1805H609.494V168.319ZM720.271 182.933C713.194 182.933 707.105 181.417 702.004 178.384C696.903 175.305 692.973 170.962 690.216 165.355C687.505 159.748 686.149 153.131 686.149 145.502V145.433C686.149 137.896 687.528 131.302 690.285 125.649C693.042 119.951 696.903 115.539 701.866 112.414C706.875 109.243 712.757 107.657 719.513 107.657C726.268 107.657 732.082 109.174 736.953 112.207C741.87 115.194 745.639 119.422 748.258 124.891C750.924 130.36 752.256 136.725 752.256 143.986V149.018H693.456V138.54H745.087L737.849 148.328V142.607C737.849 137.46 737.068 133.209 735.505 129.854C733.943 126.453 731.783 123.926 729.026 122.271C726.314 120.571 723.166 119.721 719.582 119.721C715.997 119.721 712.78 120.594 709.931 122.34C707.128 124.087 704.899 126.66 703.244 130.061C701.636 133.462 700.832 137.644 700.832 142.607V148.328C700.832 153.062 701.636 157.106 703.244 160.461C704.853 163.816 707.128 166.389 710.069 168.181C713.056 169.928 716.572 170.801 720.616 170.801C723.557 170.801 726.153 170.364 728.405 169.491C730.657 168.572 732.541 167.354 734.058 165.838C735.574 164.321 736.631 162.644 737.229 160.805L737.436 160.254H751.429L751.291 160.943C750.694 163.839 749.568 166.596 747.914 169.215C746.259 171.835 744.099 174.179 741.434 176.247C738.768 178.315 735.666 179.946 732.128 181.141C728.589 182.336 724.637 182.933 720.271 182.933ZM780.864 181.486L754.738 109.036H770.386L788.722 167.078H788.998L807.335 109.036H822.638L796.65 181.486H780.864ZM875.51 183.14C866.181 183.14 858.047 181.049 851.107 176.867C844.214 172.685 838.883 166.757 835.115 159.082C831.346 151.362 829.462 142.239 829.462 131.715V131.646C829.462 121.123 831.346 112.023 835.115 104.349C838.883 96.674 844.214 90.7687 851.107 86.6327C858.001 82.4507 866.135 80.3597 875.51 80.3597C882.817 80.3597 889.389 81.7613 895.225 84.5646C901.107 87.322 905.933 91.1823 909.701 96.1455C913.516 101.063 915.951 106.807 917.008 113.379L917.146 114.068H901.981L901.567 112.621C900.464 108.714 898.718 105.383 896.328 102.625C893.938 99.822 890.997 97.6621 887.505 96.1455C884.012 94.629 880.014 93.8707 875.51 93.8707C869.352 93.8707 863.975 95.4332 859.38 98.5582C854.83 101.637 851.291 106.003 848.764 111.656C846.282 117.262 845.041 123.926 845.041 131.646V131.715C845.041 139.39 846.282 146.077 848.764 151.775C851.291 157.474 854.853 161.885 859.448 165.01C864.044 168.089 869.398 169.629 875.51 169.629C879.968 169.629 883.92 168.894 887.367 167.423C890.859 165.907 893.823 163.701 896.259 160.805C898.741 157.91 900.602 154.349 901.843 150.121L901.981 149.431H917.146L917.008 150.19C915.997 156.761 913.585 162.529 909.77 167.492C906.002 172.455 901.176 176.316 895.294 179.073C889.412 181.784 882.817 183.14 875.51 183.14ZM960.299 182.933C953.221 182.933 947.132 181.417 942.031 178.384C936.93 175.305 933.001 170.962 930.244 165.355C927.532 159.748 926.176 153.131 926.176 145.502V145.433C926.176 137.896 927.555 131.302 930.312 125.649C933.07 119.951 936.93 115.539 941.893 112.414C946.903 109.243 952.785 107.657 959.54 107.657C966.296 107.657 972.109 109.174 976.981 112.207C981.898 115.194 985.666 119.422 988.286 124.891C990.951 130.36 992.284 136.725 992.284 143.986V149.018H933.483V138.54H985.115L977.877 148.328V142.607C977.877 137.46 977.096 133.209 975.533 129.854C973.971 126.453 971.811 123.926 969.053 122.271C966.342 120.571 963.194 119.721 959.609 119.721C956.025 119.721 952.808 120.594 949.959 122.34C947.155 124.087 944.926 126.66 943.272 130.061C941.664 133.462 940.859 137.644 940.859 142.607V148.328C940.859 153.062 941.664 157.106 943.272 160.461C944.88 163.816 947.155 166.389 950.096 168.181C953.084 169.928 956.599 170.801 960.643 170.801C963.585 170.801 966.181 170.364 968.433 169.491C970.685 168.572 972.569 167.354 974.085 165.838C975.602 164.321 976.659 162.644 977.256 160.805L977.463 160.254H991.457L991.319 160.943C990.721 163.839 989.596 166.596 987.941 169.215C986.287 171.835 984.127 174.179 981.461 176.247C978.796 178.315 975.694 179.946 972.155 181.141C968.617 182.336 964.664 182.933 960.299 182.933ZM1003.73 181.486V109.036H1018.41V119.928H1018.75C1020.68 116.251 1023.49 113.287 1027.16 111.035C1030.89 108.783 1035.48 107.657 1040.95 107.657C1048.9 107.657 1055.06 110.07 1059.43 114.896C1063.84 119.675 1066.04 126.224 1066.04 134.542V181.486H1051.29V137.368C1051.29 131.899 1050 127.694 1047.43 124.753C1044.86 121.766 1040.97 120.272 1035.78 120.272C1032.29 120.272 1029.23 121.077 1026.61 122.685C1024.04 124.248 1022.02 126.453 1020.55 129.303C1019.12 132.106 1018.41 135.415 1018.41 139.229V181.486H1003.73ZM1105.82 182.933C1098.74 182.933 1093.46 181.325 1089.96 178.108C1086.47 174.845 1084.72 169.606 1084.72 162.391V120.755H1074.32V109.036H1084.72V90.1483H1099.75V109.036H1113.33V120.755H1099.75V161.633C1099.75 165.309 1100.56 167.837 1102.16 169.215C1103.77 170.548 1106.16 171.214 1109.33 171.214C1110.11 171.214 1110.85 171.191 1111.54 171.146C1112.23 171.054 1112.83 170.985 1113.33 170.939V182.313C1112.5 182.451 1111.42 182.589 1110.09 182.726C1108.76 182.864 1107.33 182.933 1105.82 182.933ZM1154.69 182.933C1147.61 182.933 1141.53 181.417 1136.42 178.384C1131.32 175.305 1127.39 170.962 1124.64 165.355C1121.93 159.748 1120.57 153.131 1120.57 145.502V145.433C1120.57 137.896 1121.95 131.302 1124.71 125.649C1127.46 119.951 1131.32 115.539 1136.29 112.414C1141.3 109.243 1147.18 107.657 1153.93 107.657C1160.69 107.657 1166.5 109.174 1171.37 112.207C1176.29 115.194 1180.06 119.422 1182.68 124.891C1185.34 130.36 1186.68 136.725 1186.68 143.986V149.018H1127.88V138.54H1179.51L1172.27 148.328V142.607C1172.27 137.46 1171.49 133.209 1169.93 129.854C1168.36 126.453 1166.2 123.926 1163.45 122.271C1160.74 120.571 1157.59 119.721 1154 119.721C1150.42 119.721 1147.2 120.594 1144.35 122.34C1141.55 124.087 1139.32 126.66 1137.67 130.061C1136.06 133.462 1135.25 137.644 1135.25 142.607V148.328C1135.25 153.062 1136.06 157.106 1137.67 160.461C1139.27 163.816 1141.55 166.389 1144.49 168.181C1147.48 169.928 1150.99 170.801 1155.04 170.801C1157.98 170.801 1160.57 170.364 1162.83 169.491C1165.08 168.572 1166.96 167.354 1168.48 165.838C1170 164.321 1171.05 162.644 1171.65 160.805L1171.86 160.254H1185.85L1185.71 160.943C1185.11 163.839 1183.99 166.596 1182.33 169.215C1180.68 171.835 1178.52 174.179 1175.85 176.247C1173.19 178.315 1170.09 179.946 1166.55 181.141C1163.01 182.336 1159.06 182.933 1154.69 182.933ZM1198.12 181.486V109.036H1212.8V121.444H1213.15C1214.3 117.17 1216.34 113.816 1219.28 111.38C1222.22 108.898 1225.76 107.657 1229.9 107.657C1230.96 107.657 1231.92 107.726 1232.79 107.864C1233.71 107.956 1234.45 108.071 1235 108.209V121.927C1234.45 121.651 1233.55 121.444 1232.31 121.306C1231.12 121.123 1229.78 121.031 1228.31 121.031C1225.14 121.031 1222.39 121.72 1220.04 123.099C1217.74 124.431 1215.95 126.384 1214.66 128.958C1213.42 131.486 1212.8 134.565 1212.8 138.195V181.486H1198.12ZM1245.55 182.52C1243.02 182.52 1240.88 181.669 1239.14 179.969C1237.44 178.223 1236.59 176.086 1236.59 173.558C1236.59 171.031 1237.44 168.917 1239.14 167.216C1240.88 165.47 1243.02 164.597 1245.55 164.597C1248.07 164.597 1250.19 165.47 1251.89 167.216C1253.64 168.917 1254.51 171.031 1254.51 173.558C1254.51 176.086 1253.64 178.223 1251.89 179.969C1250.19 181.669 1248.07 182.52 1245.55 182.52Z" fill="#525252"/>
</g>
<defs>
<clipPath id="clip0_15679_2927">
<rect width="1269.53" height="141.176" fill="white" transform="translate(10 64.8093)"/>
</clipPath>
</defs>
</svg>
